<svg width="40" height="32" viewBox="0 0 40 32" fill="none" xmlns="http://www.w3.org/2000/svg">
<rect width="40" height="32" fill="#141517"/>
<path fill-rule="evenodd" clip-rule="evenodd" d="M27 10.4766L25.5234 9V9.92969H24.8125V10.0917L24.7641 10.0832L24.1836 9.73828L14.7491 9.76433L13.4922 9.73828V16.9844L13.8899 19.4148L13.875 20.5937L14.0939 20.6615L14.235 21.5234H13L14.4766 23V23L14.4766 23H19.6719V20.9564H27L27 10.4766ZM16.3012 21.3446L14.0939 20.6615L13.8899 19.4148L14.0117 9.76637L14.7491 9.76433L24.0469 9.95703L24.7641 10.0832L24.8125 10.112V19.2528H19.1592V18.7251H19.6499V18.7881H20.1039C20.4156 18.7881 20.7615 18.7659 21.1028 18.7333C21.3339 18.8132 21.5738 18.87 21.8048 18.8359L21.8187 18.8339V18.6511C21.5921 18.681 21.3487 18.7099 21.1028 18.7333C21.0528 18.716 21.0032 18.6977 20.9543 18.6789C21.213 18.6547 21.476 18.6233 21.7235 18.5899C22.4195 18.6477 23.0093 18.7155 23.0093 18.7155V18.3845C23.0093 18.3845 22.4804 18.485 21.8187 18.5769L21.7235 18.5899C21.3292 18.5571 20.9009 18.5275 20.5263 18.5152C20.4046 18.4741 20.2917 18.4462 20.1914 18.4462H19.6499V18.5092H19.1592V18.7251H17.9123V20.2879L17.2109 20.6758L16.3012 21.3446ZM19.6499 18.5092H20.1914C20.2959 18.5092 20.4084 18.5114 20.5263 18.5152C20.6154 18.5453 20.7091 18.5825 20.8061 18.6209C20.8547 18.6401 20.9042 18.6597 20.9543 18.6789C20.6549 18.7069 20.3613 18.7251 20.1039 18.7251H19.6499V18.5092Z" fill="#B2BACD"/>
<path fill-rule="evenodd" clip-rule="evenodd" d="M25.5234 9H13V21.5234H18.1953V19.5H25.5234V9ZM18.6354 12.8326H16.9907V20.3747H14.1484V10.1484H24.375V18.3516H17.6484L17.6345 15.9959H18.6354C20.1914 15.9959 21.5897 15.6719 21.5897 15.6719V12.492C21.5897 12.492 20.8147 12.6596 20.1914 12.7461C19.5682 12.8326 18.6354 12.8326 18.6354 12.8326Z" fill="#B2BACD"/>
</svg>
