<svg width="336" height="48" viewBox="0 0 336 48" fill="none" xmlns="http://www.w3.org/2000/svg">
<rect y="4" width="40" height="40" rx="20" fill="#1F2024"/>
<g clip-path="url(#clip0_1_105)">
<rect x="17.625" y="16.875" width="4.75" height="8.25" rx="2.375" stroke="#B2BACD" stroke-width="1.75"/>
<path d="M25.625 23V23C25.625 26.0376 23.1626 28.5 20.125 28.5H19.875C16.8374 28.5 14.375 26.0376 14.375 23V23" stroke="#B2BACD" stroke-width="1.75" stroke-linecap="round" stroke-linejoin="round"/>
<path d="M20 28.75L20 31" stroke="#B2BACD" stroke-width="1.75" stroke-linecap="round" stroke-linejoin="round"/>
</g>
<rect x="60" y="4" width="160" height="40" rx="20" fill="#CCFF00"/>
<path d="M96.905 28.665C95.485 28.665 94.41 28.355 93.68 27.735C92.95 27.115 92.55 26.25 92.48 25.14H94.805C94.865 25.69 95.045 26.12 95.345 26.43C95.655 26.74 96.175 26.895 96.905 26.895C97.435 26.895 97.86 26.765 98.18 26.505C98.51 26.235 98.675 25.89 98.675 25.47C98.675 25.04 98.535 24.73 98.255 24.54C97.975 24.35 97.44 24.195 96.65 24.075C95.25 23.895 94.255 23.565 93.665 23.085C93.075 22.595 92.78 21.84 92.78 20.82C92.78 19.89 93.135 19.125 93.845 18.525C94.565 17.925 95.51 17.625 96.68 17.625C97.89 17.625 98.835 17.895 99.515 18.435C100.205 18.975 100.6 19.775 100.7 20.835H98.465C98.315 19.885 97.72 19.41 96.68 19.41C96.16 19.41 95.76 19.52 95.48 19.74C95.21 19.96 95.075 20.255 95.075 20.625C95.075 21.025 95.205 21.325 95.465 21.525C95.735 21.715 96.27 21.87 97.07 21.99C98.45 22.17 99.45 22.495 100.07 22.965C100.69 23.425 101 24.185 101 25.245C101 26.225 100.625 27.04 99.875 27.69C99.135 28.34 98.145 28.665 96.905 28.665ZM105.42 28.65C104.59 28.65 103.96 28.44 103.53 28.02C103.1 27.6 102.885 26.985 102.885 26.175V22.2H101.88V20.655H102.885V18.96H105.045V20.655H106.695V22.2H105.045V25.98C105.045 26.6 105.335 26.91 105.915 26.91C106.225 26.91 106.5 26.86 106.74 26.76V28.44C106.34 28.58 105.9 28.65 105.42 28.65ZM110.397 28.665C109.627 28.665 108.997 28.47 108.507 28.08C108.017 27.69 107.772 27.105 107.772 26.325C107.772 24.645 109.132 23.805 111.852 23.805H112.737V23.49C112.737 23 112.642 22.64 112.452 22.41C112.262 22.17 111.932 22.05 111.462 22.05C110.672 22.05 110.227 22.42 110.127 23.16H108.072C108.132 22.27 108.482 21.6 109.122 21.15C109.762 20.7 110.587 20.475 111.597 20.475C113.787 20.475 114.882 21.445 114.882 23.385V28.5H112.767V27.555C112.237 28.295 111.447 28.665 110.397 28.665ZM111.042 27.15C111.532 27.15 111.937 27.025 112.257 26.775C112.577 26.525 112.737 26.185 112.737 25.755V25.095H111.897C111.237 25.095 110.737 25.18 110.397 25.35C110.067 25.52 109.902 25.805 109.902 26.205C109.902 26.835 110.282 27.15 111.042 27.15ZM116.749 28.5V20.655H118.924V22.155C119.424 21.085 120.269 20.545 121.459 20.535V22.56C120.619 22.55 119.984 22.705 119.554 23.025C119.134 23.335 118.924 23.85 118.924 24.57V28.5H116.749ZM125.825 28.65C124.995 28.65 124.365 28.44 123.935 28.02C123.505 27.6 123.29 26.985 123.29 26.175V22.2H122.285V20.655H123.29V18.96H125.45V20.655H127.1V22.2H125.45V25.98C125.45 26.6 125.74 26.91 126.32 26.91C126.63 26.91 126.905 26.86 127.145 26.76V28.44C126.745 28.58 126.305 28.65 125.825 28.65ZM135.884 28.665C134.464 28.665 133.389 28.355 132.659 27.735C131.929 27.115 131.529 26.25 131.459 25.14H133.784C133.844 25.69 134.024 26.12 134.324 26.43C134.634 26.74 135.154 26.895 135.884 26.895C136.414 26.895 136.839 26.765 137.159 26.505C137.489 26.235 137.654 25.89 137.654 25.47C137.654 25.04 137.514 24.73 137.234 24.54C136.954 24.35 136.419 24.195 135.629 24.075C134.229 23.895 133.234 23.565 132.644 23.085C132.054 22.595 131.759 21.84 131.759 20.82C131.759 19.89 132.114 19.125 132.824 18.525C133.544 17.925 134.489 17.625 135.659 17.625C136.869 17.625 137.814 17.895 138.494 18.435C139.184 18.975 139.579 19.775 139.679 20.835H137.444C137.294 19.885 136.699 19.41 135.659 19.41C135.139 19.41 134.739 19.52 134.459 19.74C134.189 19.96 134.054 20.255 134.054 20.625C134.054 21.025 134.184 21.325 134.444 21.525C134.714 21.715 135.249 21.87 136.049 21.99C137.429 22.17 138.429 22.495 139.049 22.965C139.669 23.425 139.979 24.185 139.979 25.245C139.979 26.225 139.604 27.04 138.854 27.69C138.114 28.34 137.124 28.665 135.884 28.665ZM145.149 28.665C143.939 28.665 142.954 28.31 142.194 27.6C141.434 26.88 141.054 25.905 141.054 24.675V24.555C141.054 23.335 141.434 22.35 142.194 21.6C142.964 20.85 143.929 20.475 145.089 20.475C146.189 20.475 147.099 20.81 147.819 21.48C148.549 22.15 148.914 23.145 148.914 24.465V25.065H143.259C143.289 25.715 143.474 26.22 143.814 26.58C144.154 26.94 144.619 27.12 145.209 27.12C146.149 27.12 146.694 26.755 146.844 26.025H148.899C148.769 26.875 148.379 27.53 147.729 27.99C147.079 28.44 146.219 28.665 145.149 28.665ZM143.289 23.73H146.799C146.729 22.56 146.159 21.975 145.089 21.975C144.599 21.975 144.194 22.13 143.874 22.44C143.564 22.74 143.369 23.17 143.289 23.73ZM153.261 28.665C152.201 28.665 151.376 28.44 150.786 27.99C150.196 27.54 149.881 26.89 149.841 26.04H151.866C151.916 26.41 152.046 26.69 152.256 26.88C152.466 27.06 152.796 27.15 153.246 27.15C154.066 27.15 154.476 26.865 154.476 26.295C154.476 26.035 154.356 25.835 154.116 25.695C153.876 25.555 153.466 25.445 152.886 25.365C151.826 25.205 151.076 24.945 150.636 24.585C150.206 24.225 149.991 23.67 149.991 22.92C149.991 22.14 150.291 21.54 150.891 21.12C151.501 20.69 152.236 20.475 153.096 20.475C155.076 20.475 156.156 21.285 156.336 22.905H154.341C154.221 22.275 153.811 21.96 153.111 21.96C152.761 21.96 152.486 22.035 152.286 22.185C152.096 22.335 152.001 22.53 152.001 22.77C152.001 23.02 152.106 23.205 152.316 23.325C152.536 23.445 152.936 23.545 153.516 23.625C154.576 23.775 155.346 24.025 155.826 24.375C156.316 24.725 156.561 25.295 156.561 26.085C156.561 26.925 156.271 27.565 155.691 28.005C155.121 28.445 154.311 28.665 153.261 28.665ZM160.79 28.665C159.73 28.665 158.905 28.44 158.315 27.99C157.725 27.54 157.41 26.89 157.37 26.04H159.395C159.445 26.41 159.575 26.69 159.785 26.88C159.995 27.06 160.325 27.15 160.775 27.15C161.595 27.15 162.005 26.865 162.005 26.295C162.005 26.035 161.885 25.835 161.645 25.695C161.405 25.555 160.995 25.445 160.415 25.365C159.355 25.205 158.605 24.945 158.165 24.585C157.735 24.225 157.52 23.67 157.52 22.92C157.52 22.14 157.82 21.54 158.42 21.12C159.03 20.69 159.765 20.475 160.625 20.475C162.605 20.475 163.685 21.285 163.865 22.905H161.87C161.75 22.275 161.34 21.96 160.64 21.96C160.29 21.96 160.015 22.035 159.815 22.185C159.625 22.335 159.53 22.53 159.53 22.77C159.53 23.02 159.635 23.205 159.845 23.325C160.065 23.445 160.465 23.545 161.045 23.625C162.105 23.775 162.875 24.025 163.355 24.375C163.845 24.725 164.09 25.295 164.09 26.085C164.09 26.925 163.8 27.565 163.22 28.005C162.65 28.445 161.84 28.665 160.79 28.665ZM165.53 28.5V20.655H167.69V28.5H165.53ZM167.48 19.26C167.24 19.48 166.945 19.59 166.595 19.59C166.245 19.59 165.95 19.48 165.71 19.26C165.48 19.03 165.365 18.745 165.365 18.405C165.365 18.065 165.48 17.785 165.71 17.565C165.95 17.335 166.245 17.22 166.595 17.22C166.945 17.22 167.24 17.335 167.48 17.565C167.72 17.785 167.84 18.065 167.84 18.405C167.84 18.745 167.72 19.03 167.48 19.26ZM171.924 26.385C172.264 26.805 172.739 27.015 173.349 27.015C173.959 27.015 174.429 26.805 174.759 26.385C175.099 25.965 175.269 25.38 175.269 24.63V24.525C175.269 23.775 175.099 23.19 174.759 22.77C174.429 22.34 173.959 22.125 173.349 22.125C172.749 22.125 172.279 22.335 171.939 22.755C171.599 23.165 171.429 23.745 171.429 24.495V24.615C171.429 25.365 171.594 25.955 171.924 26.385ZM173.334 28.665C172.144 28.665 171.159 28.3 170.379 27.57C169.599 26.83 169.209 25.86 169.209 24.66V24.54C169.209 23.33 169.599 22.35 170.379 21.6C171.159 20.85 172.149 20.475 173.349 20.475C174.549 20.475 175.534 20.845 176.304 21.585C177.084 22.315 177.474 23.285 177.474 24.495V24.615C177.474 25.835 177.084 26.815 176.304 27.555C175.524 28.295 174.534 28.665 173.334 28.665ZM178.932 28.5V20.655H181.107V21.9C181.317 21.48 181.637 21.14 182.067 20.88C182.507 20.61 183.037 20.475 183.657 20.475C184.467 20.475 185.107 20.73 185.577 21.24C186.057 21.74 186.297 22.495 186.297 23.505V28.5H184.122V23.82C184.122 23.28 184.012 22.885 183.792 22.635C183.572 22.375 183.222 22.245 182.742 22.245C182.252 22.245 181.857 22.395 181.557 22.695C181.257 22.985 181.107 23.41 181.107 23.97V28.5H178.932Z" fill="black"/>
<rect x="57" y="1" width="166" height="46" rx="23" stroke="white" stroke-opacity="0.4" stroke-width="2"/>
<rect x="240" y="4" width="40" height="40" rx="20" fill="#1F2024"/>
<g clip-path="url(#clip1_1_105)">
<path fill-rule="evenodd" clip-rule="evenodd" d="M265.155 19.0718C264.44 17.8342 263.12 17.0718 261.691 17.0718H258.309C256.88 17.0718 255.56 17.8342 254.845 19.0718L253.155 22C252.44 23.2376 252.44 24.7624 253.155 26L254.845 28.9282C255.56 30.1658 256.88 30.9282 258.309 30.9282H261.691C263.12 30.9282 264.44 30.1658 265.155 28.9282L266.845 26C267.56 24.7624 267.56 23.2376 266.845 22L265.155 19.0718ZM260 26.75C261.519 26.75 262.75 25.5188 262.75 24C262.75 22.4812 261.519 21.25 260 21.25C258.481 21.25 257.25 22.4812 257.25 24C257.25 25.5188 258.481 26.75 260 26.75Z" fill="white"/>
</g>
<rect x="296" y="4" width="40" height="40" rx="20" fill="#1F2024"/>
<g clip-path="url(#clip2_1_105)">
<g clip-path="url(#clip3_1_105)">
<circle cx="316" cy="19" r="3" fill="white"/>
<path d="M310 28.625C310 29.0508 310.05 29.4655 310.146 29.8642C310.5 31.34 312.083 32 313.6 32H318.4C319.917 32 321.5 31.34 321.854 29.8642C321.95 29.4655 322 29.0508 322 28.625C322 26.2027 320.367 24.138 318.076 23.346C317.699 23.2156 317.298 23.1777 316.899 23.1786L315.072 23.1829C314.673 23.1839 314.272 23.2236 313.895 23.3559C311.62 24.1552 310 26.2128 310 28.625Z" fill="white"/>
</g>
</g>
<defs>
<clipPath id="clip0_1_105">
<rect width="16" height="16" fill="white" transform="translate(12 16)"/>
</clipPath>
<clipPath id="clip1_1_105">
<rect width="16" height="16" fill="white" transform="translate(252 16)"/>
</clipPath>
<clipPath id="clip2_1_105">
<rect width="16" height="16" fill="white" transform="translate(308 16)"/>
</clipPath>
<clipPath id="clip3_1_105">
<rect width="16" height="16" fill="white" transform="translate(308 16)"/>
</clipPath>
</defs>
</svg>
